<?xml version="1.0" encoding="utf-8"?>
<!-- Generator: Adobe Illustrator 15.1.0, SVG Export Plug-In . SVG Version: 6.00 Build 0)  -->
<!DOCTYPE svg PUBLIC "-//W3C//DTD SVG 1.1//EN" "http://www.w3.org/Graphics/SVG/1.1/DTD/svg11.dtd">
<svg version="1.1" id="Layer_1" xmlns="http://www.w3.org/2000/svg" xmlns:xlink="http://www.w3.org/1999/xlink" x="0px" y="0px"
	 width="578.463px" height="129.98px" viewBox="0 0 578.463 129.98" enable-background="new 0 0 578.463 129.98"
	 xml:space="preserve">
<g>
	<g>
		<g>
			<path fill="#1D1D1B" d="M170.523,53.834c0,6.587-0.686,12.682-2.053,18.283c-1.37,5.603-3.573,10.457-6.608,14.563
				c-3.037,4.105-6.908,7.335-11.611,9.687c-4.705,2.352-10.393,3.528-17.064,3.528c-5.475,0-10.328-0.449-14.563-1.347
				c-4.234-0.898-7.721-2.117-10.457-3.657V14.061c2.907-1.454,6.371-2.65,10.393-3.593c4.02-0.94,8.597-1.411,13.729-1.411
				c6.672,0,12.424,1.09,17.258,3.271c4.832,2.181,8.789,5.241,11.868,9.174c3.079,3.935,5.366,8.661,6.864,14.178
				C169.773,41.196,170.523,47.249,170.523,53.834z M153.972,53.644c0-11.525-1.682-20.042-5.045-25.548
				c-3.364-5.507-8.752-8.262-16.161-8.262c-3.322,0-6.091,0.427-8.304,1.281v66.208c0.936,0.343,2.171,0.642,3.705,0.898
				c1.531,0.257,3.148,0.383,4.854,0.383c7.58,0,12.967-2.816,16.16-8.452C152.374,74.52,153.972,65.683,153.972,53.644z"/>
			<path fill="#1D1D1B" d="M231.142,94.892c-2.738,1.456-6.244,2.652-10.521,3.592c-4.278,0.94-9.11,1.412-14.499,1.412
				c-9.494,0-16.572-1.838-21.233-5.517c-4.663-3.677-6.993-8.853-6.993-15.525c0-4.533,1.027-8.317,3.08-11.355
				c2.053-3.035,4.831-5.517,8.34-7.441c3.506-1.924,7.59-3.4,12.252-4.426c4.662-1.027,9.644-1.796,14.947-2.31v-3.721
				c0-2.224-0.342-4.084-1.025-5.582c-0.686-1.496-1.627-2.672-2.823-3.528c-1.198-0.854-2.63-1.453-4.298-1.796
				c-1.668-0.341-3.528-0.514-5.582-0.514c-3.336,0-6.523,0.449-9.559,1.348c-3.037,0.898-5.625,1.86-7.762,2.887l-3.592-8.981
				c2.223-1.11,5.366-2.265,9.43-3.464c4.062-1.197,8.83-1.796,14.306-1.796c3.593,0,6.929,0.407,10.008,1.219
				c3.079,0.814,5.773,2.161,8.083,4.042c2.31,1.882,4.126,4.342,5.453,7.377c1.325,3.037,1.988,6.78,1.988,11.227V94.892z
				 M216.515,60.763c-3.678,0.429-6.992,1.006-9.943,1.732c-2.951,0.728-5.453,1.732-7.506,3.015
				c-2.053,1.283-3.637,2.951-4.746,5.003c-1.113,2.053-1.668,4.663-1.668,7.827c0,4.535,1.26,7.807,3.784,9.815
				c2.522,2.011,6.095,3.015,10.714,3.015c1.796,0,3.506-0.17,5.132-0.513c1.624-0.341,3.035-0.812,4.233-1.412V60.763z"/>
			<path fill="#1D1D1B" d="M274.379,97.971c-0.686,0.343-1.712,0.662-3.079,0.962c-1.369,0.299-2.995,0.449-4.875,0.449
				c-3.423,0-6.332-0.536-8.725-1.604c-2.396-1.068-4.363-2.458-5.902-4.17c-1.54-1.71-2.652-3.699-3.336-5.966
				c-0.686-2.266-1.027-4.597-1.027-6.993V39.464h-7.697V29.457h7.697V14.188l15.654-4.362v19.63h11.29v10.008h-11.29V79.88
				c0,2.739,0.576,4.92,1.731,6.543c1.155,1.626,3.1,2.438,5.838,2.438c0.684,0,1.304-0.064,1.86-0.192
				c0.555-0.128,1.175-0.277,1.86-0.449V97.971z"/>
			<path fill="#1D1D1B" d="M334.808,94.892c-2.738,1.456-6.244,2.652-10.521,3.592c-4.278,0.94-9.11,1.412-14.499,1.412
				c-9.494,0-16.572-1.838-21.233-5.517c-4.663-3.677-6.993-8.853-6.993-15.525c0-4.533,1.027-8.317,3.08-11.355
				c2.053-3.035,4.831-5.517,8.34-7.441c3.506-1.924,7.59-3.4,12.252-4.426c4.662-1.027,9.644-1.796,14.947-2.31v-3.721
				c0-2.224-0.342-4.084-1.025-5.582c-0.686-1.496-1.627-2.672-2.823-3.528c-1.198-0.854-2.63-1.453-4.298-1.796
				c-1.668-0.341-3.528-0.514-5.582-0.514c-3.336,0-6.523,0.449-9.559,1.348c-3.037,0.898-5.625,1.86-7.762,2.887l-3.592-8.981
				c2.223-1.11,5.366-2.265,9.43-3.464c4.062-1.197,8.83-1.796,14.306-1.796c3.593,0,6.929,0.407,10.008,1.219
				c3.079,0.814,5.773,2.161,8.083,4.042c2.31,1.882,4.126,4.342,5.453,7.377c1.325,3.037,1.988,6.78,1.988,11.227V94.892z
				 M320.181,60.763c-3.678,0.429-6.992,1.006-9.943,1.732c-2.951,0.728-5.453,1.732-7.506,3.015
				c-2.053,1.283-3.637,2.951-4.746,5.003c-1.113,2.053-1.668,4.663-1.668,7.827c0,4.535,1.26,7.807,3.784,9.815
				c2.522,2.011,6.095,3.015,10.714,3.015c1.796,0,3.506-0.17,5.132-0.513c1.624-0.341,3.035-0.812,4.233-1.412V60.763z"/>
			<path fill="#1D1D1B" d="M365.853,93.865c0,5.132-0.814,9.665-2.438,13.6c-1.626,3.933-3.85,7.269-6.672,10.008
				c-2.822,2.736-6.117,4.896-9.879,6.479c-3.766,1.582-7.783,2.544-12.061,2.887V115.42c2.053-0.429,3.957-1.177,5.709-2.245
				c1.752-1.071,3.291-2.46,4.619-4.17c1.324-1.712,2.373-3.701,3.143-5.966c0.771-2.267,1.155-4.854,1.155-7.762V10.339h16.423
				V93.865z"/>
			<path fill="#1D1D1B" d="M435.904,64.099c0,5.132-0.599,9.879-1.796,14.242c-1.199,4.362-2.973,8.147-5.324,11.355
				c-2.354,3.208-5.325,5.709-8.918,7.506c-3.592,1.796-7.826,2.694-12.701,2.694c-4.876,0-9.109-0.898-12.703-2.694
				c-3.592-1.796-6.564-4.298-8.916-7.506c-2.354-3.208-4.129-6.993-5.325-11.355c-1.198-4.362-1.796-9.109-1.796-14.242
				s0.598-9.899,1.796-14.306c1.196-4.404,2.972-8.211,5.325-11.419c2.352-3.208,5.324-5.709,8.916-7.506
				c3.594-1.796,7.827-2.694,12.703-2.694c4.875,0,9.109,0.898,12.701,2.694c3.593,1.796,6.586,4.298,8.981,7.506
				c2.394,3.208,4.17,7.015,5.325,11.419C435.327,54.199,435.904,58.966,435.904,64.099z M420.38,63.906
				c0-3.328-0.172-6.527-0.514-9.599s-0.984-5.824-1.924-8.256c-0.942-2.43-2.268-4.37-3.979-5.821
				c-1.711-1.452-3.977-2.177-6.799-2.177c-2.738,0-4.984,0.726-6.736,2.177c-1.754,1.451-3.102,3.392-4.041,5.821
				c-0.943,2.432-1.584,5.185-1.926,8.256s-0.513,6.271-0.513,9.599c0,3.244,0.192,6.379,0.577,9.406
				c0.385,3.029,1.047,5.717,1.988,8.063s2.266,4.224,3.979,5.631c1.709,1.407,3.934,2.111,6.672,2.111
				c2.822,0,5.088-0.704,6.799-2.111s3.036-3.286,3.979-5.631c0.939-2.346,1.582-5.034,1.924-8.063
				C420.208,70.285,420.38,67.15,420.38,63.906z"/>
			<path fill="#1D1D1B" d="M464.388,9.826c0,2.139-0.814,3.958-2.438,5.453c-1.626,1.498-3.679,2.245-6.158,2.245
				c-2.396,0-4.427-0.748-6.095-2.245c-1.668-1.496-2.502-3.314-2.502-5.453c0-2.223,0.834-4.083,2.502-5.581
				C451.364,2.75,453.396,2,455.791,2c2.479,0,4.532,0.75,6.158,2.245C463.573,5.743,464.388,7.603,464.388,9.826z M447.964,98.612
				V29.457h15.653v69.156H447.964z"/>
			<path fill="#1D1D1B" d="M517.12,98.612V49.601c0-1.367-0.193-2.759-0.578-4.17c-0.385-1.412-1.049-2.65-1.988-3.721
				c-0.942-1.069-2.203-1.945-3.785-2.63c-1.584-0.684-3.615-1.026-6.095-1.026c-2.565,0-4.641,0.172-6.223,0.513
				c-1.583,0.343-3.101,0.814-4.555,1.411v58.635h-15.653V33.178c3.25-1.54,7.1-2.759,11.548-3.657
				c4.446-0.898,9.622-1.347,15.524-1.347c5.133,0,9.451,0.577,12.959,1.732c3.506,1.155,6.328,2.716,8.468,4.683
				c2.138,1.969,3.677,4.214,4.619,6.736c0.94,2.524,1.411,5.196,1.411,8.019v49.269H517.12z"/>
			<path fill="#1D1D1B" d="M576.393,97.971c-0.686,0.343-1.712,0.662-3.079,0.962c-1.369,0.299-2.995,0.449-4.875,0.449
				c-3.423,0-6.332-0.536-8.725-1.604c-2.396-1.068-4.363-2.458-5.902-4.17c-1.54-1.71-2.652-3.699-3.336-5.966
				c-0.686-2.266-1.027-4.597-1.027-6.993V39.464h-7.697V29.457h7.697V14.188l15.654-4.362v19.63h11.29v10.008h-11.29V79.88
				c0,2.739,0.576,4.92,1.731,6.543c1.155,1.626,3.1,2.438,5.838,2.438c0.684,0,1.304-0.064,1.86-0.192
				c0.555-0.128,1.175-0.277,1.86-0.449V97.971z"/>
		</g>
	</g>
	<path fill="#0098D8" d="M2,128.661c0,0,41.357-41.357,45.299-119.145c0,0,9.852,63.018,38.422,85.663
		C85.721,95.18,58.134,91.241,2,128.661z"/>
</g>
</svg>
