<svg id="Layer_1" data-name="Layer 1" xmlns="http://www.w3.org/2000/svg" xmlns:xlink="http://www.w3.org/1999/xlink" viewBox="0 0 552.05 222.27"><defs><style>.cls-1{fill:none;}.cls-2{fill:#5b8da8;}.cls-3{fill:#1a1a1a;}.cls-4{clip-path:url(#clip-path);}.cls-5{clip-path:url(#clip-path-2);}.cls-6{fill:#fcb954;stroke:#f1b251;}.cls-6,.cls-7,.cls-8{stroke-miterlimit:10;stroke-width:2px;}.cls-7{fill:#59b7c9;stroke:#63afbd;}.cls-8{fill:#93c4ca;stroke:#86b4ba;}.cls-9{opacity:0.56;}.cls-10{fill:#b3b3b3;}</style><clipPath id="clip-path" transform="translate(4.49 4.71)"><path class="cls-1" d="M117.89,7.25c-45,0-81.42,34.55-81.42,77.17s36.45,77.16,81.42,77.16S199.3,127,199.3,84.42,162.85,7.25,117.89,7.25ZM153.32,193c-30.4,0-55-23.35-55-52.16s24.63-52.15,55-52.15,55,23.35,55,52.15S183.71,193,153.32,193Z"/></clipPath><clipPath id="clip-path-2" transform="translate(4.49 4.71)"><ellipse class="cls-1" cx="118.8" cy="106.95" rx="105.19" ry="99.7"/></clipPath></defs><path class="cls-2" d="M229.49,166.61h43.79c5.94,0,8.29-4.14,8.29-11,0-4.14-.9-8.28-8.74-10.86l-31-10.3c-9.41-3.14-13.44-8.52-13.44-19.38,0-11.2,5.37-18.37,17.81-18.37h42.44v8.51H248.08c-5.94,0-8.85,2.8-8.85,10.08,0,4.26.45,8.4,7.39,10.76l29.57,9.85c10.42,3.47,16.24,7.39,16.24,19.71,0,10.64-4.14,19.49-16.24,19.49h-46.7Z" transform="translate(4.49 4.71)"/><path class="cls-2" d="M325.81,175.12c-20.16,0-25.2-11.31-25.2-29.79,0-17.92,5-29.57,25.2-29.57h22.51v7.62H327.49c-14.79,0-17,8.51-17,22,0,14,2.24,22.18,17,22.18h22.06v7.61Z" transform="translate(4.49 4.71)"/><path class="cls-2" d="M356.94,107V96.72h9.63V107Zm.11,8.73h9.41v59.36h-9.41Z" transform="translate(4.49 4.71)"/><path class="cls-2" d="M434.44,164.15c.34,1,1,1.68,1.8,1.68s1.34-.68,1.79-1.68l25.53-67.43H475l-29,72.47c-1.34,3.24-3.58,6.83-9.74,6.83s-8.52-3.59-9.75-6.83L397.6,96.72H409Z" transform="translate(4.49 4.71)"/><path class="cls-2" d="M482.15,107V96.72h9.64V107Zm.11,8.73h9.41v59.36h-9.41Z" transform="translate(4.49 4.71)"/><path class="cls-2" d="M507.13,175.12c-2.91,0-7.51-.56-7.51-6.61,0-4.59,2.69-6.83,4.82-9.18l30.91-33.6c.56-.56.9-.9.9-1.46s-.56-.89-1.12-.89H501.08v-7.62h40.21a5.87,5.87,0,0,1,6.16,6.16c0,4.48-2.47,6.61-4.26,8.63L511.5,165.38c-.45.45-.9.89-.9,1.45s.45.68,1,.68h35.95v7.61Z" transform="translate(4.49 4.71)"/><path class="cls-3" d="M239.89,79.6c-3.91,0-6.27-1.54-6.27-6.34V41.14c0-4.8,2.36-6.34,6.27-6.34h16.32c14.33,0,17.59,10.69,17.59,22.21S270.86,79.6,257.1,79.6Zm2.62-39.94c-2.37,0-2.94.9-2.94,3v29c0,2.37.51,3.07,2.94,3.07h12.22c11.2,0,12.87-8.12,12.87-17.72s-2-17.35-13.19-17.35Z" transform="translate(4.49 4.71)"/><path class="cls-3" d="M299.21,45.68c6,0,8.83,3.71,8.83,9.28V74.48c0,3.45-1.34,5.12-5.31,5.12h-15.1c-6.21,0-8.83-3.33-8.83-10.37,0-6.72,2.62-10.3,8.83-10.3h15v-4c0-2.87-1.41-4.86-4.8-4.86H281.36V45.68Zm-10.56,17.6c-3.32,0-4.22,2.3-4.22,6s.9,6,4.22,6h12.23a1.61,1.61,0,0,0,1.79-1.73V63.28Z" transform="translate(4.49 4.71)"/><path class="cls-3" d="M327.31,79.6c-8.45,0-10.82-4-10.82-10.88V50h-5V45.68h5V34.8h5.38V45.68h9.47V50h-9.47V68.4c0,5.25,2.05,6.85,7.23,6.85h2.24V79.6Z" transform="translate(4.49 4.71)"/><path class="cls-3" d="M354.12,45.68c6,0,8.84,3.71,8.84,9.28V74.48c0,3.45-1.35,5.12-5.32,5.12h-15.1c-6.21,0-8.83-3.33-8.83-10.37,0-6.72,2.62-10.3,8.83-10.3h15v-4c0-2.87-1.41-4.86-4.8-4.86H336.27V45.68Zm-10.55,17.6c-3.33,0-4.23,2.3-4.23,6s.9,6,4.23,6h12.22a1.61,1.61,0,0,0,1.79-1.73V63.28Z" transform="translate(4.49 4.71)"/><path class="cls-3" d="M366.16,74.73h7.42c7.49,0,10.5-3.77,10.5-10.94v-29H390V65.2c0,8.19-4.67,14.4-14,14.4h-9.85Z" transform="translate(4.49 4.71)"/><path class="cls-3" d="M431.11,62.51c0,12.86-5.24,17.47-17.4,17.47S396.3,75.37,396.3,62.51s5.25-17.21,17.41-17.21S431.11,49.71,431.11,62.51Zm-17.4,13.12c8.64,0,11.77-3.52,11.77-13.12s-3.13-12.86-11.77-12.86-11.78,3.26-11.78,12.86S405.07,75.63,413.71,75.63Z" transform="translate(4.49 4.71)"/><path class="cls-3" d="M436.43,40.69V34.8h5.5v5.89Zm.06,5h5.38V79.6h-5.38Z" transform="translate(4.49 4.71)"/><path class="cls-3" d="M448.33,51.25c0-3.52,1.47-5.57,5.18-5.57h12.16c7.36,0,11.46,3.2,11.46,11V79.6h-5.38V57.65C471.75,53,470.09,50,465,50h-9.28c-1.28,0-2,.45-2,2.18V79.6h-5.38Z" transform="translate(4.49 4.71)"/><path class="cls-3" d="M496.39,79.6c-8.44,0-10.81-4-10.81-10.88V50h-5V45.68h5V34.8H491V45.68h9.48V50H491V68.4c0,5.25,2.05,6.85,7.23,6.85h2.25V79.6Z" transform="translate(4.49 4.71)"/><g class="cls-4"><g class="cls-5"><rect class="cls-6" x="1" y="1.21" width="121.72" height="110.03"/><rect class="cls-7" x="122.72" y="111.24" width="121.72" height="110.03"/><rect class="cls-8" x="1" y="111.24" width="121.72" height="110.03"/><g class="cls-9"><polygon class="cls-10" points="124.98 109.03 126.05 1.01 245.76 1.97 244.69 110 124.98 109.03"/><path class="cls-10" d="M122.55-2.7l117.71,1-1,106-117.71-1,1-106m-2-2-1.08,110,121.71,1,1.08-110-121.71-1Z" transform="translate(4.49 4.71)"/></g></g></g></svg>