<svg id="Layer_1" data-name="Layer 1" xmlns="http://www.w3.org/2000/svg" xmlns:xlink="http://www.w3.org/1999/xlink" viewBox="0 0 1368.52 401.17"><defs><style>.cls-1{fill:url(#linear-gradient);}.cls-2{fill:#1ca9f9;}.cls-3{fill:url(#linear-gradient-2);}.cls-4{fill:url(#linear-gradient-3);}.cls-5{fill:url(#linear-gradient-5);}.cls-6{font-size:186px;font-family:Sansation-Bold, Sansation;font-weight:700;}.cls-7{fill-rule:evenodd;fill:url(#linear-gradient-6);}</style><linearGradient id="linear-gradient" x1="316.48" y1="749.76" x2="1178.67" y2="749.76" gradientUnits="userSpaceOnUse"><stop offset="0" stop-color="#6758eb"/><stop offset="0.17" stop-color="#526eed"/><stop offset="0.37" stop-color="#3b85f0"/><stop offset="1" stop-color="#1ca9f9"/></linearGradient><linearGradient id="linear-gradient-2" x1="316.48" y1="698.33" x2="1178.67" y2="698.33" xlink:href="#linear-gradient"/><linearGradient id="linear-gradient-3" x1="316.48" y1="719.88" x2="1178.67" y2="719.88" xlink:href="#linear-gradient"/><linearGradient id="linear-gradient-5" x1="316.48" y1="710.24" x2="1178.67" y2="710.24" xlink:href="#linear-gradient"/><linearGradient id="linear-gradient-6" x1="1103.46" y1="870.31" x2="1260.47" y2="870.31" xlink:href="#linear-gradient"/></defs><path class="cls-1" d="M652.78,629.45a13.93,13.93,0,0,0-24-9.58l-53.77-31a13.94,13.94,0,1,0-27,0l-53.41,30.83a13.91,13.91,0,0,0-20.12.35l-54-31.18a13.93,13.93,0,1,0-27,0L340.2,619.54a13.93,13.93,0,1,0-.12,19.93l53,31.17a13.34,13.34,0,0,0-.13,1.89,14,14,0,0,0,10.61,13.53v64.08a13.93,13.93,0,0,0,0,27.06v60.87a13.93,13.93,0,1,0,12.89,23.64l61.61,35.57L458.29,928h50.46l-18.33-30.87,61.45-35.47a13.93,13.93,0,1,0,12.86-23.64V777.21a14,14,0,0,0,10.65-13.54,13.7,13.7,0,0,0-.66-4.23l54.21-31.3A13.93,13.93,0,1,0,642,704.79V643A14,14,0,0,0,652.78,629.45ZM395.6,664.37l-52-30.56a13.73,13.73,0,0,0,.71-4.36,13.92,13.92,0,0,0-.65-4.21l52.84-30.51a13.91,13.91,0,0,0,20.71,0l53.92,31.13a14.08,14.08,0,0,0-.47,3.61,13.73,13.73,0,0,0,.48,3.62l-53.37,30.81a13.92,13.92,0,0,0-22.21.49Zm79.13,55.77-58.12,33.55a13.85,13.85,0,0,0-6.31-3.53V686a13.75,13.75,0,0,0,3.22-1.27Zm3.45,169.48-58.1-33.54a13.85,13.85,0,0,0,.74-4.48,14,14,0,0,0-10.56-13.52V777.19a14,14,0,0,0,5.29-2.61l62.63,36.18Zm0-93-57.36-33.14a13.89,13.89,0,0,0-.65-4l58-33.49Zm2.63-87.11-60.16-34.76a13.59,13.59,0,0,0,.17-2.2,13.38,13.38,0,0,0-.23-2.53l53.83-31.08a13.78,13.78,0,0,0,6.39,3.92Zm6.72.15V643.07a14,14,0,0,0,7-3.83L547.75,670a13.68,13.68,0,0,0-.24,2.55,14.51,14.51,0,0,0,.19,2.28Zm2.91,16.48,57.73,33.33a13.58,13.58,0,0,0-.65,4.1l-57.08,33Zm67.61,112a14.05,14.05,0,0,0-10.54,13.51,13.73,13.73,0,0,0,.74,4.46l-57.81,33.38V810.76l62.42-36.13a14.07,14.07,0,0,0,5.19,2.55Zm0-87.94a13.73,13.73,0,0,0-6.37,3.56l-58-33.48,61.18-35.41a14,14,0,0,0,3.19,1.23Zm3.36-91.56a13.78,13.78,0,0,0-10.91,5.28L498,633.51a13.85,13.85,0,0,0,0-8.13l53.13-30.67a13.91,13.91,0,0,0,20.71,0l53.63,31a13.83,13.83,0,0,0,0,7.55l-53.09,30.61A13.82,13.82,0,0,0,561.45,658.59Zm73.87,46.29a14.08,14.08,0,0,0-10.41,13.48,13.71,13.71,0,0,0,.6,4l-54.29,31.35a13.75,13.75,0,0,0-6.45-3.6V686.06A13.93,13.93,0,0,0,575.14,670L628.76,639a13.71,13.71,0,0,0,6.56,3.89Z" transform="translate(-316.48 -571.48)"/><ellipse class="cls-2" cx="1133.87" cy="57.65" rx="15.21" ry="15.05"/><path class="cls-3" d="M771.29,617.69H708.23V779h63.06c26.59,0,46.8-7.14,60.07-21.23s20-35.58,20-63.84c0-25.31-6.72-44.54-20-57.17S797.89,617.69,771.29,617.69Zm0,136.14H737.35v-111h33.94c33.81,0,51,17.18,51,51.07C822.25,733.67,805.1,753.83,771.29,753.83Z" transform="translate(-316.48 -571.48)"/><path class="cls-4" d="M921.84,660.8c-12.81,0-27.23,1.87-42.87,5.57v22.85c15.63-3.68,30-5.55,42.87-5.55,15.59,0,23.5,5.54,23.5,16.47v9.54l-.56-.11a132.1,132.1,0,0,0-24.19-2.26c-34,0-51.26,11.79-51.26,35,0,24.3,14.54,36.62,43.2,36.62a59.08,59.08,0,0,0,34-10.58l.32-.22L957.66,779h16.8V699.58C974.46,673.84,956.75,660.8,921.84,660.8Zm23.5,88-.19.14a47.07,47.07,0,0,1-28.08,9.39c-12.36,0-18.62-5.5-18.62-16.35,0-10.1,7.45-15.23,22.14-15.23A124.92,124.92,0,0,1,945,729.06l.38.08Z" transform="translate(-316.48 -571.48)"/><path class="cls-4" d="M1126.05,660.8c-12.81,0-27.23,1.87-42.87,5.57v22.85c15.63-3.68,30-5.55,42.87-5.55,15.59,0,23.5,5.54,23.5,16.47v9.54l-.56-.11a132.1,132.1,0,0,0-24.19-2.26c-34,0-51.26,11.79-51.26,35,0,24.3,14.54,36.62,43.2,36.62a59.08,59.08,0,0,0,34-10.58l.32-.22,10.81,10.8h16.8V699.58C1178.67,673.84,1161,660.8,1126.05,660.8Zm23.5,88-.19.14a47.07,47.07,0,0,1-28.08,9.39c-12.36,0-18.62-5.5-18.62-16.35,0-10.1,7.45-15.23,22.14-15.23a124.92,124.92,0,0,1,24.37,2.28l.38.08Z" transform="translate(-316.48 -571.48)"/><path class="cls-5" d="M1023.45,641.51h-21.38V747.34c0,21.28,9.64,31.63,29.47,31.63h26.3V756.1h-11.77c-9.88,0-14.89-5.77-14.89-17.16V683.67h26.66V660.8H1028Z" transform="translate(-316.48 -571.48)"/><path d="M1205.49,779c41.9-.11,63.15-15.68,63.15-46.27v-115h-29.12v115c0,13.92-11.45,21-34,21.12Z" transform="translate(-316.48 -571.48)"/><path d="M1353.63,660.46c-19.44,0-34.21,5-43.91,14.83s-14.61,24.85-14.61,44.59,5,34.69,14.73,44.51,24.43,14.81,43.79,14.81,34.22-5,43.91-14.81,14.61-24.8,14.61-44.51-4.91-34.74-14.61-44.59S1373.07,660.46,1353.63,660.46Zm0,96.77c-19.51,0-29.4-12.72-29.4-37.8,0-24.48,9.89-36.89,29.4-36.89S1383,695,1383,719.43C1383,744.51,1373.14,757.23,1353.63,757.23Z" transform="translate(-316.48 -571.48)"/><rect x="1119.31" y="89.32" width="29.12" height="118.17"/><path d="M1559.77,660.8c-14.4,0-27.41,5.83-38.69,17.33l-.61.63-3.85-18h-22.4V779h29.11v-82.9l.17-.15c9.35-7.82,19.07-11.79,28.9-11.79,13.34,0,20.1,6.8,20.1,20.21V779h29.12V704.34C1601.62,675.45,1587.54,660.8,1559.77,660.8Z" transform="translate(-316.48 -571.48)"/><path d="M1685,683.67V660.8h-29.85l-4.54-19.29h-21.39V747.34c0,21.29,9.65,31.63,29.48,31.63H1685V756.1h-11.78c-9.87,0-14.88-5.77-14.88-17.16V683.67Z" transform="translate(-316.48 -571.48)"/><text class="cls-6" transform="translate(531.19 361.39)"><tspan xml:space="preserve">Sci    Viz</tspan></text><g id="svgg"><path id="path0" class="cls-7" d="M1176.12,791.75c-8.9,2.21-16.95,10-23.22,22.63-2.08,4.17-1.6,4-5.47,2.5-3-1.11-3-1.17-3.79-2.71a9.94,9.94,0,0,0-14.88-3.4c-.91.73-1,.74-4.26.44-16.35-1.47-24.45,7.63-19.55,21.95,3.07,9,11.16,20.1,24,33l4.08,4.1-4.08,4.09c-23.47,23.59-31.07,41.6-21.38,50.72,6.51,6.14,20.38,5.77,38.62-1,5.25-1.95,4.6-2.15,6.71,2.08,15.6,31.28,42.6,31.28,58.14,0a16.74,16.74,0,0,1,2.12-3.62c.18,0,2.24.7,4.57,1.56,20.27,7.48,34.81,7.12,40.36-1,6.74-9.87-1.29-26.71-23.29-48.88l-3.93-4,1.27-1.29c.7-.72,2.53-2.55,4.07-4.08s4.08-4.21,5.66-6c2.81-3.09,2.91-3.17,4.26-3.17,6,0,10.7-6.49,8.62-11.93-.35-.93-.25-1.25,1.46-4.5,13-24.75-4.84-35.35-38.45-22.85-5.27,1.95-4.61,2.15-6.72-2.07-8.89-17.81-21.47-26-34.92-22.63m11.27,10.36c5,2.33,10.06,8,14.21,16.09,1.06,2,1.93,3.81,1.93,3.91a47.49,47.49,0,0,1-4.8,2.56c-2.65,1.3-7.5,3.9-10.78,5.75l-6,3.38-6.45-3.61c-3.55-2-8.4-4.57-10.78-5.76a36.64,36.64,0,0,1-4.33-2.33c0-.1.94-2,2.1-4.22,7.35-14.16,16.24-19.79,24.88-15.77M1124.78,821a2.08,2.08,0,0,1,1.52,1.08c2.37,4.34,8.22,6.09,13,3.87l1.91-.89,3.17,1.17,3.18,1.18-1.08,3.73a147.32,147.32,0,0,0-4.66,27.19c-.5,6.41-.07,6.46-7.27-.87-16.5-16.8-24.94-32.9-18.71-35.7a19.16,19.16,0,0,1,9-.76m123,.6c3.33,1.51,3,6.16-.8,13.41l-1.3,2.44-1.89.36c-5.09,1-8.56,5.67-7.63,10.35.21,1.1.19,1.68-.08,2-3.59,4.39-12.69,13.38-13.2,13.05-.27-.17-.53-1.76-.75-4.56a147.82,147.82,0,0,0-4.67-27.39l-1.08-3.88,1.33-.48c6.8-2.48,8.87-3.17,12.35-4.12,7.61-2.07,14.72-2.55,17.72-1.19m-79.64,15.82,4.3,2.35-4.79,3.24c-2.63,1.78-7,4.89-9.75,6.9s-5.05,3.66-5.17,3.66c-.56,0,1.31-10.88,3-17.39l1.17-4.57,3.48,1.73c1.92.95,5.42,2.79,7.78,4.08m40.61,1c.94,4,2,9.91,2.48,13.71l.22,1.82-5.19-3.86c-2.85-2.12-7.34-5.31-10-7.1l-4.8-3.25,4.36-2.37c2.39-1.31,5.87-3.13,7.73-4l3.37-1.67.41,1.3c.23.71.86,3.17,1.4,5.47m-24.24,8.71c6.6,4.2,15.81,10.8,23.65,16.94l4.14,3.25v5.87l-4,3.17c-7.55,5.93-17.15,12.81-23.78,17L1182,895l-3-1.92c-6.47-4.11-14.79-10.07-22.53-16.13l-4.8-3.77v-5.87l5-3.89c8-6.25,24.2-17.71,25.31-17.89,0,0,1.23.71,2.61,1.59m-4.5,8.81c-12.36,1.39-17.65,16.13-8.8,24.5,7.35,7,19.92,4.95,24.39-3.91,5.2-10.28-3.63-21.95-15.59-20.59m-38.2,26.23a146.68,146.68,0,0,0,4.66,27.22l1.08,3.73-4.27,1.57c-14.38,5.31-26.34,6.56-28.79,3-3.6-5.19,6.52-21.63,23.35-37.93,3.49-3.39,3.52-3.37,4,2.4m87.28.61c15,15.23,23.68,30.13,20.4,34.86-2.49,3.61-14.38,2.4-28.84-2.94l-4.27-1.58,1.08-3.88a147.31,147.31,0,0,0,4.67-27.37c.47-6.08,0-6.13,7,.91m-18.37,9a108.52,108.52,0,0,1-2.68,13.12l-1,3.93-2-.94c-1.1-.52-4.6-2.34-7.78-4l-5.79-3.1,5.14-3.48c2.82-1.92,7.26-5.08,9.87-7a30.83,30.83,0,0,1,4.84-3.28,42.72,42.72,0,0,1-.59,4.82m-52.82-1.2c2.73,2,7.12,5.12,9.75,6.9l4.79,3.24-4.3,2.34c-2.36,1.29-5.86,3.13-7.78,4.09l-3.48,1.73-1.17-4.57c-1.67-6.51-3.54-17.4-3-17.4.12,0,2.45,1.65,5.17,3.67M1188,910.1c3.27,1.86,8.11,4.44,10.76,5.75a47.49,47.49,0,0,1,4.8,2.56c0,.09-.87,1.85-1.93,3.91-11.86,22.95-27.28,23.08-39.09.31-1.16-2.22-2.1-4.12-2.1-4.22a38.43,38.43,0,0,1,4.33-2.33c2.38-1.18,7.19-3.76,10.7-5.73s6.41-3.59,6.47-3.6,2.78,1.5,6.06,3.35" transform="translate(-316.48 -571.48)"/></g></svg>