<?xml version="1.0" encoding="UTF-8" standalone="no"?>
<svg
   xmlns:dc="http://purl.org/dc/elements/1.1/"
   xmlns:cc="http://creativecommons.org/ns#"
   xmlns:rdf="http://www.w3.org/1999/02/22-rdf-syntax-ns#"
   xmlns:svg="http://www.w3.org/2000/svg"
   xmlns="http://www.w3.org/2000/svg"
   xmlns:xlink="http://www.w3.org/1999/xlink"
   xmlns:sodipodi="http://sodipodi.sourceforge.net/DTD/sodipodi-0.dtd"
   xmlns:inkscape="http://www.inkscape.org/namespaces/inkscape"
   id="Layer_1"
   data-name="Layer 1"
   viewBox="0 0 1368.52 401.17"
   version="1.1"
   sodipodi:docname="logo.svg"
   inkscape:version="1.0.1 (c497b03c, 2020-09-10)">
  <metadata
     id="metadata1547">
    <rdf:RDF>
      <cc:Work
         rdf:about="">
        <dc:format>image/svg+xml</dc:format>
        <dc:type
           rdf:resource="http://purl.org/dc/dcmitype/StillImage" />
      </cc:Work>
    </rdf:RDF>
  </metadata>
  <sodipodi:namedview
     pagecolor="#ffffff"
     bordercolor="#666666"
     borderopacity="1"
     objecttolerance="10"
     gridtolerance="10"
     guidetolerance="10"
     inkscape:pageopacity="0"
     inkscape:pageshadow="2"
     inkscape:window-width="1920"
     inkscape:window-height="963"
     id="namedview1545"
     showgrid="false"
     inkscape:zoom="0.80086516"
     inkscape:cx="684.26001"
     inkscape:cy="200.58501"
     inkscape:window-x="1920"
     inkscape:window-y="25"
     inkscape:window-maximized="0"
     inkscape:current-layer="Layer_1" />
  <defs
     id="defs1514">
    <style
       id="style1499">.cls-1{fill:url(#linear-gradient);}.cls-2{fill:#1ca9f9;}.cls-3{fill:url(#linear-gradient-2);}.cls-4{fill:url(#linear-gradient-3);}.cls-5{fill:url(#linear-gradient-5);}.cls-6{font-size:186px;font-family:Sansation-Bold, Sansation;font-weight:700;}.cls-7{fill-rule:evenodd;fill:url(#linear-gradient-6);}</style>
    <linearGradient
       id="linear-gradient"
       x1="316.48"
       y1="749.76"
       x2="1178.67"
       y2="749.76"
       gradientUnits="userSpaceOnUse">
      <stop
         offset="0"
         stop-color="#6758eb"
         id="stop1501" />
      <stop
         offset="0.17"
         stop-color="#526eed"
         id="stop1503" />
      <stop
         offset="0.37"
         stop-color="#3b85f0"
         id="stop1505" />
      <stop
         offset="1"
         stop-color="#1ca9f9"
         id="stop1507" />
    </linearGradient>
    <linearGradient
       id="linear-gradient-2"
       x1="316.48"
       y1="698.33"
       x2="1178.67"
       y2="698.33"
       xlink:href="#linear-gradient"
       gradientTransform="translate(-514.48,-571.48)" />
    <linearGradient
       id="linear-gradient-3"
       x1="316.48"
       y1="719.88"
       x2="1178.67"
       y2="719.88"
       xlink:href="#linear-gradient"
       gradientTransform="translate(-514.48,-571.48)" />
    <linearGradient
       id="linear-gradient-5"
       x1="316.48"
       y1="710.24"
       x2="1178.67"
       y2="710.24"
       xlink:href="#linear-gradient"
       gradientTransform="translate(-514.48,-571.48)" />
    <linearGradient
       id="linear-gradient-6"
       x1="1103.46"
       y1="870.31"
       x2="1260.47"
       y2="870.31"
       xlink:href="#linear-gradient" />
    <linearGradient
       inkscape:collect="always"
       xlink:href="#linear-gradient"
       id="linearGradient2110"
       x1="316.48"
       y1="719.88"
       x2="1178.67"
       y2="719.88"
       gradientTransform="translate(-514.48,-571.48)" />
  </defs>
  <ellipse
     class="cls-2"
     cx="935.87"
     cy="57.650002"
     rx="15.21"
     ry="15.05"
     id="ellipse1518" />
  <path
     class="cls-3"
     d="m 256.81,46.21 h -63.06 v 161.31 h 63.06 c 26.59,0 46.8,-7.14 60.07,-21.23 13.27,-14.09 20,-35.58 20,-63.84 0,-25.31 -6.72,-44.54 -20,-57.17 C 303.6,52.65 283.41,46.21 256.81,46.21 Z m 0,136.14 h -33.94 v -111 h 33.94 c 33.81,0 51,17.18 51,51.07 -0.04,39.77 -17.19,59.93 -51,59.93 z"
     id="path1520"
     style="fill:url(#linear-gradient-2)" />
  <path
     class="cls-4"
     d="m 407.36,89.32 c -12.81,0 -27.23,1.87 -42.87,5.57 v 22.85 c 15.63,-3.68 30,-5.55 42.87,-5.55 15.59,0 23.5,5.54 23.5,16.47 v 9.54 l -0.56,-0.11 a 132.1,132.1 0 0 0 -24.19,-2.26 c -34,0 -51.26,11.79 -51.26,35 0,24.3 14.54,36.62 43.2,36.62 a 59.08,59.08 0 0 0 34,-10.58 l 0.32,-0.22 10.81,10.87 h 16.8 V 128.1 c 0,-25.74 -17.71,-38.78 -52.62,-38.78 z m 23.5,88 -0.19,0.14 a 47.07,47.07 0 0 1 -28.08,9.39 c -12.36,0 -18.62,-5.5 -18.62,-16.35 0,-10.1 7.45,-15.23 22.14,-15.23 a 124.92,124.92 0 0 1 24.41,2.31 l 0.38,0.08 z"
     id="path1522"
     style="fill:url(#linearGradient2110)" />
  <path
     class="cls-4"
     d="m 611.57,89.32 c -12.81,0 -27.23,1.87 -42.87,5.57 v 22.85 c 15.63,-3.68 30,-5.55 42.87,-5.55 15.59,0 23.5,5.54 23.5,16.47 v 9.54 l -0.56,-0.11 a 132.1,132.1 0 0 0 -24.19,-2.26 c -34,0 -51.26,11.79 -51.26,35 0,24.3 14.54,36.62 43.2,36.62 a 59.08,59.08 0 0 0 34,-10.58 l 0.32,-0.22 10.81,10.8 h 16.8 V 128.1 c 0,-25.74 -17.67,-38.78 -52.62,-38.78 z m 23.5,88 -0.19,0.14 a 47.07,47.07 0 0 1 -28.08,9.39 c -12.36,0 -18.62,-5.5 -18.62,-16.35 0,-10.1 7.45,-15.23 22.14,-15.23 a 124.92,124.92 0 0 1 24.37,2.28 l 0.38,0.08 z"
     id="path1524"
     style="fill:url(#linear-gradient-3)" />
  <path
     class="cls-5"
     d="m 508.97,70.03 h -21.38 v 105.83 c 0,21.28 9.64,31.63 29.47,31.63 h 26.3 v -22.87 h -11.77 c -9.88,0 -14.89,-5.77 -14.89,-17.16 v -55.27 h 26.66 V 89.32 h -29.84 z"
     id="path1526"
     style="fill:url(#linear-gradient-5)" />
  <path
     d="m 691.01,207.52 c 41.9,-0.11 63.15,-15.68 63.15,-46.27 v -115 h -29.12 v 115 c 0,13.92 -11.45,21 -34,21.12 z"
     id="path1528" />
  <path
     d="m 839.15,88.98 c -19.44,0 -34.21,5 -43.91,14.83 -9.7,9.83 -14.61,24.85 -14.61,44.59 0,19.74 5,34.69 14.73,44.51 9.73,9.82 24.43,14.81 43.79,14.81 19.36,0 34.22,-5 43.91,-14.81 9.69,-9.81 14.61,-24.8 14.61,-44.51 0,-19.71 -4.91,-34.74 -14.61,-44.59 -9.7,-9.85 -24.47,-14.83 -43.91,-14.83 z m 0,96.77 c -19.51,0 -29.4,-12.72 -29.4,-37.8 0,-24.48 9.89,-36.89 29.4,-36.89 19.51,0 29.37,12.46 29.37,36.89 0,25.08 -9.86,37.8 -29.37,37.8 z"
     id="path1530" />
  <rect
     x="921.31012"
     y="89.32"
     width="29.120001"
     height="118.17"
     id="rect1532" />
  <path
     d="m 1045.29,89.32 c -14.4,0 -27.41,5.83 -38.69,17.33 l -0.61,0.63 -3.85,-18 h -22.4 v 118.24 h 29.11 v -82.9 l 0.17,-0.15 c 9.35,-7.82 19.07,-11.79 28.9,-11.79 13.34,0 20.1,6.8 20.1,20.21 v 74.63 h 29.12 v -74.66 c 0,-28.89 -14.08,-43.54 -41.85,-43.54 z"
     id="path1534" />
  <path
     d="M 1170.52,112.19 V 89.32 h -29.85 l -4.54,-19.29 h -21.39 v 105.83 c 0,21.29 9.65,31.63 29.48,31.63 h 26.3 v -22.87 h -11.78 c -9.87,0 -14.88,-5.77 -14.88,-17.16 v -55.27 z"
     id="path1536" />
  <text
     class="cls-6"
     id="text1540"
     x="333.19"
     y="361.39001"><tspan
       xml:space="preserve"
       id="tspan1538">Sci    Viz</tspan></text>
  <g
     id="svgg"
     transform="translate(-198)">
    <path
       id="path0"
       class="cls-7"
       d="m 1176.12,791.75 c -8.9,2.21 -16.95,10 -23.22,22.63 -2.08,4.17 -1.6,4 -5.47,2.5 -3,-1.11 -3,-1.17 -3.79,-2.71 a 9.94,9.94 0 0 0 -14.88,-3.4 c -0.91,0.73 -1,0.74 -4.26,0.44 -16.35,-1.47 -24.45,7.63 -19.55,21.95 3.07,9 11.16,20.1 24,33 l 4.08,4.1 -4.08,4.09 c -23.47,23.59 -31.07,41.6 -21.38,50.72 6.51,6.14 20.38,5.77 38.62,-1 5.25,-1.95 4.6,-2.15 6.71,2.08 15.6,31.28 42.6,31.28 58.14,0 a 16.74,16.74 0 0 1 2.12,-3.62 c 0.18,0 2.24,0.7 4.57,1.56 20.27,7.48 34.81,7.12 40.36,-1 6.74,-9.87 -1.29,-26.71 -23.29,-48.88 l -3.93,-4 1.27,-1.29 c 0.7,-0.72 2.53,-2.55 4.07,-4.08 1.54,-1.53 4.08,-4.21 5.66,-6 2.81,-3.09 2.91,-3.17 4.26,-3.17 6,0 10.7,-6.49 8.62,-11.93 -0.35,-0.93 -0.25,-1.25 1.46,-4.5 13,-24.75 -4.84,-35.35 -38.45,-22.85 -5.27,1.95 -4.61,2.15 -6.72,-2.07 -8.89,-17.81 -21.47,-26 -34.92,-22.63 m 11.27,10.36 c 5,2.33 10.06,8 14.21,16.09 1.06,2 1.93,3.81 1.93,3.91 a 47.49,47.49 0 0 1 -4.8,2.56 c -2.65,1.3 -7.5,3.9 -10.78,5.75 l -6,3.38 -6.45,-3.61 c -3.55,-2 -8.4,-4.57 -10.78,-5.76 a 36.64,36.64 0 0 1 -4.33,-2.33 c 0,-0.1 0.94,-2 2.1,-4.22 7.35,-14.16 16.24,-19.79 24.88,-15.77 M 1124.78,821 a 2.08,2.08 0 0 1 1.52,1.08 c 2.37,4.34 8.22,6.09 13,3.87 l 1.91,-0.89 3.17,1.17 3.18,1.18 -1.08,3.73 a 147.32,147.32 0 0 0 -4.66,27.19 c -0.5,6.41 -0.07,6.46 -7.27,-0.87 -16.5,-16.8 -24.94,-32.9 -18.71,-35.7 a 19.16,19.16 0 0 1 9,-0.76 m 123,0.6 c 3.33,1.51 3,6.16 -0.8,13.41 l -1.3,2.44 -1.89,0.36 c -5.09,1 -8.56,5.67 -7.63,10.35 0.21,1.1 0.19,1.68 -0.08,2 -3.59,4.39 -12.69,13.38 -13.2,13.05 -0.27,-0.17 -0.53,-1.76 -0.75,-4.56 a 147.82,147.82 0 0 0 -4.67,-27.39 l -1.08,-3.88 1.33,-0.48 c 6.8,-2.48 8.87,-3.17 12.35,-4.12 7.61,-2.07 14.72,-2.55 17.72,-1.19 m -79.64,15.82 4.3,2.35 -4.79,3.24 c -2.63,1.78 -7,4.89 -9.75,6.9 -2.75,2.01 -5.05,3.66 -5.17,3.66 -0.56,0 1.31,-10.88 3,-17.39 l 1.17,-4.57 3.48,1.73 c 1.92,0.95 5.42,2.79 7.78,4.08 m 40.61,1 c 0.94,4 2,9.91 2.48,13.71 l 0.22,1.82 -5.19,-3.86 c -2.85,-2.12 -7.34,-5.31 -10,-7.1 l -4.8,-3.25 4.36,-2.37 c 2.39,-1.31 5.87,-3.13 7.73,-4 l 3.37,-1.67 0.41,1.3 c 0.23,0.71 0.86,3.17 1.4,5.47 m -24.24,8.71 c 6.6,4.2 15.81,10.8 23.65,16.94 l 4.14,3.25 v 5.87 l -4,3.17 c -7.55,5.93 -17.15,12.81 -23.78,17 l -2.58,1.6 -3,-1.92 c -6.47,-4.11 -14.79,-10.07 -22.53,-16.13 l -4.8,-3.77 v -5.87 l 5,-3.89 c 8,-6.25 24.2,-17.71 25.31,-17.89 0,0 1.23,0.71 2.61,1.59 m -4.5,8.81 c -12.36,1.39 -17.65,16.13 -8.8,24.5 7.35,7 19.92,4.95 24.39,-3.91 5.2,-10.28 -3.63,-21.95 -15.59,-20.59 m -38.2,26.23 a 146.68,146.68 0 0 0 4.66,27.22 l 1.08,3.73 -4.27,1.57 c -14.38,5.31 -26.34,6.56 -28.79,3 -3.6,-5.19 6.52,-21.63 23.35,-37.93 3.49,-3.39 3.52,-3.37 4,2.4 m 87.28,0.61 c 15,15.23 23.68,30.13 20.4,34.86 -2.49,3.61 -14.38,2.4 -28.84,-2.94 l -4.27,-1.58 1.08,-3.88 a 147.31,147.31 0 0 0 4.67,-27.37 c 0.47,-6.08 0,-6.13 7,0.91 m -18.37,9 a 108.52,108.52 0 0 1 -2.68,13.12 l -1,3.93 -2,-0.94 c -1.1,-0.52 -4.6,-2.34 -7.78,-4 l -5.79,-3.1 5.14,-3.48 c 2.82,-1.92 7.26,-5.08 9.87,-7 a 30.83,30.83 0 0 1 4.84,-3.28 42.72,42.72 0 0 1 -0.59,4.82 m -52.82,-1.2 c 2.73,2 7.12,5.12 9.75,6.9 l 4.79,3.24 -4.3,2.34 c -2.36,1.29 -5.86,3.13 -7.78,4.09 l -3.48,1.73 -1.17,-4.57 c -1.67,-6.51 -3.54,-17.4 -3,-17.4 0.12,0 2.45,1.65 5.17,3.67 M 1188,910.1 c 3.27,1.86 8.11,4.44 10.76,5.75 a 47.49,47.49 0 0 1 4.8,2.56 c 0,0.09 -0.87,1.85 -1.93,3.91 -11.86,22.95 -27.28,23.08 -39.09,0.31 -1.16,-2.22 -2.1,-4.12 -2.1,-4.22 a 38.43,38.43 0 0 1 4.33,-2.33 c 2.38,-1.18 7.19,-3.76 10.7,-5.73 3.51,-1.97 6.41,-3.59 6.47,-3.6 0.06,-0.01 2.78,1.5 6.06,3.35"
       transform="translate(-316.48,-571.48)"
       style="fill:url(#linear-gradient-6)" />
  </g>
</svg>
